<svg width="186" height="37" viewBox="0 0 186 37" fill="none" xmlns="http://www.w3.org/2000/svg">
<path d="M14.9773 6.37406C12.8016 6.37406 12.149 7.33346 12.149 9.47032V13.0027H17.9797L17.414 18.7591H12.149V36.1593H5.1434V18.7591H0.444031V13.0463H5.1434V9.60115C5.1434 3.75749 7.49309 0.704834 13.9765 0.704834C15.3254 0.704834 16.7178 0.792053 18.0667 0.96649V6.37406" fill="#FE9A52"/>
<path d="M18.4589 23.8565C18.4589 17.4023 21.5048 12.5181 27.9446 12.5181C31.4257 12.5181 33.5578 14.3061 34.6021 16.5737V13.0414H41.3031V36.198H34.5586V32.7092C33.6013 34.9333 31.3821 36.6777 27.9011 36.6777C21.5047 36.6777 18.4153 31.837 18.4153 25.3392L18.4589 23.8565ZM25.4644 25.4264C25.4644 28.8716 26.7263 31.1829 29.9897 31.1829C32.8616 31.1829 34.2975 29.0896 34.2975 25.7753V23.4204C34.2975 20.1061 32.8181 18.0128 29.9897 18.0128C26.7263 18.0128 25.4644 20.2805 25.4644 23.7693V25.4264Z" fill="#FE9A52"/>
<path d="M55.8364 12.5181C58.5342 12.5181 61.1449 13.085 62.5374 14.088L60.9709 19.0595C59.535 18.3617 57.925 18.0128 56.315 18.0128C52.5294 18.0128 50.8759 20.1933 50.8759 23.9437V25.2956C50.8759 29.046 52.5294 31.2265 56.315 31.2265C57.925 31.2265 59.535 30.834 60.9709 30.1363L62.5374 35.1077C61.1449 36.0671 58.5777 36.6777 55.8364 36.6777C47.6125 36.6777 43.9139 32.2731 43.9139 25.1648V24.0746C43.9139 16.9662 47.6125 12.5181 55.8364 12.5181Z" fill="#FE9A52"/>
<path d="M63.4501 25.4701V23.4204C63.4501 16.8354 67.1922 12.5181 74.8069 12.5181C81.9865 12.5181 85.1629 16.879 85.1629 23.3332V27.04H70.4556C70.5862 30.2235 72.0221 31.619 75.8947 31.619C78.4185 31.619 80.9422 31.1393 83.3354 30.2235L84.5973 35.0205C82.7697 35.9799 78.9841 36.7213 75.6336 36.7213C66.757 36.6777 63.4501 32.2731 63.4501 25.4701ZM70.4556 22.4174H78.8971V21.8505C78.8971 19.3211 77.8963 17.3151 74.8069 17.3151C71.674 17.3151 70.4556 19.3211 70.4556 22.4174Z" fill="#FE9A52"/>
<path d="M111.097 25.3392C111.097 31.7934 108.007 36.6776 101.568 36.6776C98.0865 36.6776 95.6498 34.9333 94.6925 32.7092V36.1979H88.0786V1.39764L95.0841 0.787109V16.2684C96.0849 14.2188 98.3476 12.5616 101.611 12.5616C108.007 12.5616 111.14 17.4023 111.14 23.9001L111.097 25.3392ZM104.091 23.7256C104.091 20.4549 102.829 18.0128 99.4789 18.0128C96.6071 18.0128 95.0841 20.0625 95.0841 23.3768V25.8189C95.0841 29.1332 96.6506 31.1828 99.4789 31.1828C102.829 31.1828 104.091 28.7407 104.091 25.47V23.7256Z" fill="#FE9A52"/>
<path d="M113.403 25.1648V23.9873C113.403 17.3151 117.189 12.5181 124.89 12.5181C132.592 12.5181 136.378 17.3151 136.378 23.9873V25.1648C136.378 31.837 132.592 36.6341 124.89 36.6341C117.189 36.6341 113.403 31.8806 113.403 25.1648ZM129.416 23.5076C129.416 20.455 128.154 18.0128 124.89 18.0128C121.627 18.0128 120.365 20.455 120.365 23.5076V25.6881C120.365 28.7408 121.627 31.1829 124.89 31.1829C128.154 31.1829 129.416 28.7408 129.416 25.6881V23.5076Z" fill="#FE9A52"/>
<path d="M138.772 25.1648V23.9873C138.772 17.3151 142.557 12.5181 150.259 12.5181C157.961 12.5181 161.746 17.3151 161.746 23.9873V25.1648C161.746 31.837 157.961 36.6341 150.259 36.6341C142.557 36.6341 138.772 31.8806 138.772 25.1648ZM154.784 23.5076C154.784 20.455 153.522 18.0128 150.259 18.0128C146.996 18.0128 145.734 20.455 145.734 23.5076V25.6881C145.734 28.7408 146.996 31.1829 150.259 31.1829C153.522 31.1829 154.784 28.7408 154.784 25.6881V23.5076Z" fill="#FE9A52"/>
<path d="M171.362 24.0744L178.28 12.9976H185.678L178.454 24.4669L185.982 36.1978H178.542L171.362 24.8594V36.1978H164.4V1.39755L171.362 0.743408" fill="#FE9A52"/>
</svg>
