<svg width="197" height="49" viewBox="0 0 197 49" fill="none" xmlns="http://www.w3.org/2000/svg">
<g clip-path="url(#clip0_201_1038)">
<path d="M27.2989 8.06763L0.426544 6.57299L17.9397 25.3539L27.2989 8.06763ZM13.8549 6.06434L26.2503 6.94861L10.8891 0.938721L13.8549 6.06434ZM29.3726 6.94861L35.9772 0.938721L40.4299 7.32422L29.3726 6.94861ZM28.6292 8.13806L18.9023 26.0973L27.7371 35.8164L37.6753 26.5433L40.422 8.73279L28.6292 8.13806ZM19.4266 28.9144L14.747 48.4387L26.9154 36.8572L19.4266 28.9144ZM37.3858 1.23608L42.1358 7.32422L64.1799 1.23608H37.3858Z" fill="#FE9A52"/>
<path d="M58.0361 12.2935C58.0439 13.8038 57.95 15.3062 57.7544 16.8009C56.1971 16.8556 54.2486 16.2922 54.3034 18.9685C56.6979 18.9137 57.3396 18.9685 57.3396 18.9685C57.3396 18.9685 57.2301 23.7028 53.6617 23.5229C52.3783 30.7613 51.1576 37.1077 51.1576 37.1077H45.4451L48.5596 16.8635C48.5596 16.8635 49.2795 12.7473 53.0122 12.3091L58.0361 12.2935ZM55.532 37.1234L58.5369 18.6477H63.7721L64.179 20.0406C64.179 20.0406 65.4937 18.2016 69.4455 18.6477C68.4986 23.1551 68.3343 23.8281 68.3343 23.8281C68.3343 23.8281 63.9912 23.382 63.6547 24.7749C63.3182 26.1678 61.5966 37.1312 61.5966 37.1312L55.532 37.1234ZM101.897 21.9813C100.731 19.8684 98.6106 17.9355 93.6024 18.5694C88.5941 19.2033 85.0023 24.1332 85.2527 30.8239C85.7614 36.3878 89.7132 37.3738 91.0983 37.5616C100.504 38.6728 100.622 33.7741 100.677 31.9351C98.728 31.9351 97.8124 31.9743 96.9986 31.9899C96.7638 32.7568 92.9529 32.3812 92.9529 32.3812C92.9529 32.3812 91.5052 32.2716 91.3956 29.7127H101.921C101.913 29.7127 103.071 24.1019 101.897 21.9813ZM96.4978 26.4887C95.4413 26.5982 91.8808 26.4887 91.8808 26.4887C93.2737 20.9796 97.1082 23.3742 96.4978 26.4887ZM175.816 21.9813C174.65 19.8684 172.529 17.9355 167.521 18.5694C162.513 19.2033 158.921 24.1332 159.171 30.8239C159.68 36.3878 163.632 37.3738 165.017 37.5616C174.423 38.6728 174.54 33.7741 174.595 31.9351C172.646 31.9351 171.731 31.9743 170.917 31.9899C170.682 32.7568 166.871 32.3812 166.871 32.3812C166.871 32.3812 165.424 32.2716 165.314 29.7127H175.824C175.816 29.7127 176.958 24.1019 175.816 21.9813ZM170.416 26.4887C169.36 26.5982 165.799 26.4887 165.799 26.4887C167.169 20.9796 171.011 23.3742 170.393 26.4887H170.416Z" fill="#FE9A52"/>
<path d="M84.722 21.9813C83.556 19.8684 81.4354 17.9355 76.4271 18.5694C71.4189 19.2033 67.827 24.1332 68.0774 30.8239C68.5861 36.3878 72.5379 37.3738 73.923 37.5616C83.3291 38.6728 83.4465 33.7741 83.5013 31.9351C81.5527 31.9351 80.6372 31.9743 79.8233 31.9899C79.5886 32.7568 75.7776 32.3812 75.7776 32.3812C75.7776 32.3812 74.3299 32.2716 74.2204 29.7127H84.7298C84.722 29.7127 85.8958 24.1019 84.722 21.9813ZM79.3147 26.4887C78.2583 26.5982 74.6977 26.4887 74.6977 26.4887C76.1141 20.9796 79.9329 23.3742 79.3147 26.4887ZM105.851 12.7395L102.008 37.1155H108.136L112.252 12.7395H105.851ZM126.392 37.1233L129.507 18.5772H134.961V19.9936C134.961 19.9936 136.855 17.9355 141.863 18.5772C146.871 19.2111 144.367 28.1085 144.367 28.1085L143.029 37.139H137.019C137.019 37.139 138.412 28.0303 138.686 25.6122C138.404 22.8812 135.18 22.9986 134.397 24.9471C134.006 27.3416 132.23 37.139 132.23 37.139L126.392 37.1233ZM153.499 23.875H159.008L159.517 20.2597C159.517 20.2597 160.182 18.5929 157.85 18.5616C155.518 18.5303 152.005 18.5616 152.005 18.5616C152.005 18.5616 145.157 19.5319 145.549 32.9524C145.909 35.347 147.732 37.2642 150.103 37.7337C150.612 37.8433 154.149 37.7337 154.149 37.7337C154.149 37.7337 158.101 37.2251 157.545 32.2794C153.429 32.389 151.699 32.5612 151.472 31.3874C151.238 30.2214 151.942 24.321 153.499 23.875ZM177.21 24.7593L184.409 18.5538L181.663 37.1233H175.582L177.21 24.7593Z" fill="#FE9A52"/>
<path d="M185.895 18.5534L184.854 25.2049L196.06 18.4517L185.895 18.5534Z" fill="#FE9A52"/>
<path d="M122.831 18.5694C118.214 18.5303 117.15 18.6085 115.428 18.5694C113.699 18.5303 112.533 21.097 112.642 23.8202H119.724C119.724 23.8202 120.444 23.7107 120.507 24.3289C120.538 24.9236 120.538 25.5183 120.507 26.1131H115.373C115.373 26.1131 108.135 26.7782 110.42 35.5192C110.866 36.8573 113.088 37.7885 114.317 37.7416C115.546 37.6946 118.605 36.5756 119.106 36.1295L119.161 37.186L124.615 37.1312C124.615 37.1312 126.454 25.7218 126.673 24.7749C126.892 23.8281 127.284 20.1736 122.831 18.5694ZM118.057 33.0776C115.906 33.0776 115.608 30.9961 117.322 29.8849C119.028 29.1415 120.069 29.5875 120.069 29.5875C120.069 29.5875 120.147 33.1559 118.057 33.0776Z" fill="#FE9A52"/>
</g>
<defs>
<clipPath id="clip0_201_1038">
<rect width="195.634" height="47.5" fill="white" transform="translate(0.426544 0.938721)"/>
</clipPath>
</defs>
</svg>
