<svg width="204" height="40" viewBox="0 0 204 40" fill="none" xmlns="http://www.w3.org/2000/svg">
<path d="M72.7555 29.6904V15.1441L67.0294 29.6904H65.1442L59.4184 15.1467V29.6904H55.0951V9.52051H61.1542L66.0862 22.1288L71.0186 9.52051H77.1075V29.6904H72.7555Z" fill="#FE9A52"/>
<path d="M89.5252 29.6902V28.1457C88.52 29.3548 86.785 30.05 84.8667 30.05C82.5222 30.05 79.7823 28.4777 79.7823 25.2126C79.7823 21.7655 82.5222 20.4957 84.8667 20.4957C86.8459 20.4957 88.5505 21.1306 89.5252 22.2799V20.4352C89.5252 18.9537 88.2465 17.986 86.2978 17.986C84.7448 17.986 83.2833 18.5912 82.0659 19.7075L80.5423 17.0167C82.3368 15.4142 84.6523 14.7183 86.9663 14.7183C90.3461 14.7183 93.4212 16.0485 93.4212 20.2511V29.6902H89.5252ZM89.5252 26.1823V24.3662C88.8857 23.5193 87.6676 23.0659 86.4193 23.0659C84.8961 23.0659 83.649 23.8821 83.649 25.2731C83.649 26.6646 84.8972 27.4501 86.4193 27.4501C87.6676 27.4501 88.8883 27.0265 89.5252 26.1797V26.1823Z" fill="#FE9A52"/>
<path d="M96.5367 29.6904V15.0835H100.402V29.6904H96.5367Z" fill="#FE9A52"/>
<path d="M103.597 29.6904V9.52051H107.464V29.6904H103.597Z" fill="#FE9A52"/>
<path d="M110.909 29.6904V9.52051H121.596C125.462 9.52051 127.441 11.9723 127.441 14.6605C127.441 17.1702 125.858 18.8933 123.94 19.2867C126.132 19.619 127.837 21.7051 127.837 24.215C127.837 27.2687 125.827 29.6878 121.93 29.6878L110.909 29.6904ZM123.026 15.419C123.026 14.1795 122.113 13.3026 120.651 13.3026H115.231V17.5354H120.65C122.111 17.5354 123.025 16.719 123.025 15.419H123.026ZM123.422 23.6128C123.422 22.3432 122.509 21.3149 120.834 21.3149H115.231V25.9109H120.833C122.447 25.9109 123.421 25.0641 123.421 23.6128H123.422Z" fill="#FE9A52"/>
<path d="M130.642 29.6904V9.52051H134.509V29.6904H130.642Z" fill="#FE9A52"/>
<path d="M147.591 29.6904V27.8429C146.586 28.9317 144.821 30.0501 142.415 30.0501C139.188 30.0501 137.666 28.2967 137.666 25.4544V15.0835H141.534V23.9423C141.534 25.9688 142.599 26.6337 144.243 26.6337C145.735 26.6337 146.922 25.8175 147.592 24.9707V15.0835H151.459V29.6904H147.591Z" fill="#FE9A52"/>
<path d="M153.55 27.7827L155.224 25.0035C156.32 26.0319 158.481 27.0292 160.309 27.0292C161.983 27.0292 162.775 26.3942 162.775 25.4873C162.775 23.0992 154.067 25.064 154.067 19.3195C154.067 16.8677 156.198 14.7236 160.095 14.7236C162.564 14.7236 164.541 15.5703 166.002 16.719L164.449 19.4405C163.566 18.5334 161.891 17.7472 160.095 17.7472C158.695 17.7472 157.784 18.3518 157.784 19.1682C157.784 21.3149 166.522 19.5005 166.522 25.3965C166.522 28.0879 164.211 30.0527 160.129 30.0527C157.569 30.0501 155.103 29.2037 153.55 27.7827Z" fill="#FE9A52"/>
<path d="M169.804 26.0293V18.4399H167.369V15.0835H169.804V11.0928H173.671V15.0835H176.654V18.4399H173.671V25.0035C173.671 25.9426 174.158 26.6363 175.01 26.6363C175.588 26.6363 176.137 26.4245 176.35 26.1824L177.172 29.1166C176.595 29.6309 175.558 30.0553 173.945 30.0553C171.236 30.0501 169.804 28.6594 169.804 26.0293Z" fill="#FE9A52"/>
<path d="M177.763 22.3705C177.763 18.1371 180.929 14.7207 185.375 14.7207C189.788 14.7207 192.743 17.9858 192.743 22.7329V23.6387H181.812C182.087 25.4224 183.546 26.9039 186.045 26.9039C187.293 26.9039 188.998 26.3899 189.941 25.4829L191.675 28.0226C190.213 29.3532 187.899 30.0483 185.616 30.0483C181.142 30.0498 177.763 27.0566 177.763 22.3705ZM185.375 17.8653C182.97 17.8653 181.934 19.5279 181.782 20.9792H189.031C188.906 19.5884 187.932 17.8653 185.375 17.8653Z" fill="#FE9A52"/>
<path d="M195.001 29.6901V15.0833H198.868V17.0489C199.933 15.7787 201.729 14.7207 203.556 14.7207V18.47C203.282 18.4094 202.947 18.3792 202.491 18.3792C201.211 18.3792 199.507 19.1048 198.866 20.0422V29.6901H195.001Z" fill="#FE9A52"/>
<path fill-rule="evenodd" clip-rule="evenodd" d="M20.8934 39.317C27.4953 39.1044 33.8401 35.6102 37.3861 29.509C42.8428 20.1196 39.6049 8.11403 30.1523 2.69295C20.6994 -2.72817 8.61327 0.489229 3.15579 9.87795C-0.390975 15.976 -0.264478 23.1846 2.85219 28.9732C3.62595 30.4127 5.68739 30.4536 6.50861 29.0397L8.79513 25.1067C8.80301 25.0926 8.81197 25.0783 8.82096 25.065C8.89246 24.9546 8.98514 24.8594 9.09369 24.7845C9.20227 24.71 9.32457 24.6572 9.45366 24.6296C9.58272 24.6019 9.71606 24.5997 9.84597 24.6229C9.97589 24.6465 10.0999 24.6952 10.2109 24.7665C10.4274 24.9115 10.5799 25.1332 10.6373 25.386C10.6947 25.6391 10.6527 25.9044 10.5197 26.1276L7.06205 32.0775C6.81709 32.4978 6.72849 32.99 6.81173 33.4686C6.89498 33.9472 7.14474 34.3814 7.51746 34.6954L7.55592 34.7279C7.78996 34.9205 8.06351 35.06 8.35745 35.1368C8.65143 35.2131 8.95868 35.2249 9.25775 35.1714C9.55679 35.1179 9.84044 34.9999 10.0889 34.8261C10.3372 34.6519 10.5444 34.4265 10.6958 34.1645L15.9077 25.2044C15.9161 25.1904 15.9245 25.1764 15.9335 25.1627C16.0781 24.9403 16.3059 24.7838 16.5666 24.7277C16.8274 24.672 17.0997 24.7211 17.3239 24.865C17.541 25.0093 17.6941 25.231 17.752 25.4838C17.81 25.7369 17.7682 26.0026 17.6355 26.2262L12.4389 35.1637C12.3792 35.2663 12.3283 35.3736 12.2866 35.4843C12.0949 35.9998 12.1171 36.5699 12.3484 37.0691C12.5797 37.5684 13.0011 37.9558 13.5199 38.1462L13.5679 38.1635C14.0284 38.3274 14.5322 38.3251 14.9913 38.1573C15.4503 37.9894 15.8353 37.6665 16.079 37.2451L19.5509 31.2724L19.5762 31.2311C19.6477 31.1207 19.7403 31.0255 19.8488 30.9506C19.9574 30.8757 20.0797 30.823 20.2088 30.7953C20.3378 30.7676 20.4712 30.7654 20.6011 30.7886C20.7311 30.8123 20.8551 30.861 20.9661 30.9318C21.1839 31.0765 21.3377 31.2986 21.3958 31.5521C21.4538 31.8059 21.4117 32.072 21.2782 32.2959L19.0064 36.2042C18.1847 37.6174 19.2504 39.3694 20.8934 39.317ZM19.7883 21.8174C20.769 26.8125 24.2734 30.6182 26.3927 32.521C26.5369 32.6502 26.7152 32.7343 26.9055 32.7635C27.0961 32.793 27.2909 32.766 27.467 32.6863C27.6428 32.607 27.7918 32.4779 27.8966 32.3148C28.0014 32.1517 28.0571 31.9616 28.0575 31.7672V7.61121C28.0575 7.43425 28.0114 7.26038 27.9234 7.1071C27.8357 6.95379 27.7093 6.82649 27.5573 6.73794C27.4053 6.64942 27.2329 6.60274 27.0571 6.60267C26.8817 6.60259 26.7089 6.64908 26.5569 6.73749L5.79672 18.8161C5.62964 18.9133 5.49404 19.0571 5.40619 19.2301C5.31838 19.4032 5.28211 19.5982 5.30173 19.7916C5.32135 19.985 5.39605 20.1686 5.51678 20.3202C5.63756 20.4717 5.79924 20.5849 5.98237 20.646C8.67915 21.543 13.6977 22.7005 18.4808 21.0562C18.5246 21.0408 18.5695 21.0288 18.6151 21.0202C18.744 20.9949 18.8767 20.9954 19.0055 21.0217C19.1342 21.0481 19.2566 21.0998 19.3655 21.1738C19.4745 21.2478 19.5679 21.3428 19.6404 21.4532C19.713 21.5636 19.7632 21.6874 19.7883 21.8174Z" fill="#FE9A52"/>
<path d="M100.127 13.7742C99.7739 13.4612 99.1901 12.8352 99.0273 12.0177C99.0228 11.9963 99.0147 11.9759 99.0024 11.9577C98.9901 11.9396 98.9742 11.924 98.9559 11.9118C98.9377 11.8997 98.9173 11.8913 98.8958 11.8871C98.8742 11.8829 98.8519 11.883 98.8303 11.8873C98.8233 11.8885 98.8162 11.8903 98.8092 11.8925C98.0124 12.1627 97.1767 11.9728 96.7274 11.8257C96.6858 11.8118 96.6512 11.782 96.6315 11.7429C96.6118 11.7038 96.6085 11.6586 96.6222 11.6171C96.6356 11.5785 96.662 11.5459 96.6977 11.5253L100.155 9.54289C100.174 9.53208 100.195 9.52507 100.217 9.52234C100.239 9.51957 100.261 9.52109 100.282 9.52681C100.303 9.53252 100.323 9.5423 100.34 9.55562C100.358 9.56898 100.372 9.58555 100.383 9.60448C100.397 9.62935 100.405 9.65761 100.405 9.68635V13.651C100.405 13.6829 100.396 13.7141 100.378 13.7409C100.361 13.7676 100.336 13.7887 100.306 13.8017C100.277 13.8147 100.245 13.819 100.213 13.8142C100.181 13.8093 100.152 13.7954 100.128 13.7742H100.127Z" fill="#FE9A52"/>
</svg>
