<svg width="148" height="41" viewBox="0 0 148 41" fill="none" xmlns="http://www.w3.org/2000/svg">
<path d="M140.083 19.7289L148 40.711C145.667 40.3774 143.335 39.9596 140.96 39.5831L136.5 27.9897L131.917 38.6261C129.668 38.2497 127.459 38.1243 125.209 37.832L133.251 19.4795L125.957 0.668945H132.708L136.791 11.1787L141.167 0.668945H147.999L140.083 19.7289ZM120.627 0.668945H114.501V37.0405C116.502 37.166 118.584 37.2487 120.627 37.4983V0.668945ZM109.209 36.6228C103.627 36.2476 98.0427 35.9154 92.3347 35.7886V0.669106H98.5842V29.8662C102.168 29.9491 105.751 30.2401 109.209 30.4069V36.6228ZM85.6667 14.8932V21.1491H77.1255V35.372H70.9602V0.668945H88.4601V6.92483H77.1267V14.8933H85.668L85.6667 14.8932ZM60.4588 6.92483V35.7057C58.3748 35.7057 56.2509 35.7057 54.2081 35.7886V6.92483H47.7496V0.668945H66.9573V6.92483H60.4588ZM41.0003 21.4815C38.2508 21.4815 35.0001 21.4815 32.6668 21.6083V30.9087C36.3335 30.6578 40.0001 30.3667 43.708 30.2414V36.2476L26.4175 37.6251V0.668945H43.7069V6.92483H32.6667V15.351C35.084 15.351 38.792 15.2256 41 15.2256V21.4828L41.0003 21.4815ZM6.37342 17.9778V39.834C4.12543 40.0849 2.12405 40.3772 0 40.711V0.668945H5.95876L14.0829 23.4023V0.668945H20.3335V38.1243C18.1255 38.5007 15.8749 38.6261 13.5002 38.9585L6.37342 17.9778Z" fill="#FE9A52"/>
</svg>
