<svg width="171" height="57" viewBox="0 0 171 57" fill="none" xmlns="http://www.w3.org/2000/svg">
<rect width="171" height="57" rx="7" fill="white"/>
<path d="M116.174 27.3613V30.626H114.128V32.7669H116.174V40.0415C116.174 42.5255 117.298 43.5191 120.125 43.5191C120.622 43.5191 121.095 43.46 121.509 43.389V41.2717C121.154 41.3072 120.929 41.3309 120.539 41.3309C119.273 41.3309 118.717 40.7394 118.717 39.391V32.7669H121.509V30.626H118.717V27.3613H116.174Z" fill="#F34B3D"/>
<path d="M128.711 43.6966C132.472 43.6966 134.779 41.1771 134.779 37.0016C134.779 32.8497 132.46 30.3184 128.711 30.3184C124.949 30.3184 122.631 32.8497 122.631 37.0016C122.631 41.1771 124.937 43.6966 128.711 43.6966ZM128.711 41.4373C126.499 41.4373 125.257 39.8168 125.257 37.0016C125.257 34.21 126.499 32.5777 128.711 32.5777C130.911 32.5777 132.165 34.21 132.165 37.0016C132.165 39.805 130.911 41.4373 128.711 41.4373Z" fill="#F34B3D"/>
<path d="M136.752 43.4482H139.295V35.8424C139.295 34.0326 140.656 32.8143 142.584 32.8143C143.033 32.8143 143.79 32.8971 144.003 32.968V30.4604C143.731 30.3894 143.246 30.3539 142.868 30.3539C141.188 30.3539 139.757 31.2765 139.39 32.5422H139.201V30.5668H136.752V43.4482Z" fill="#F34B3D"/>
<path d="M150.318 32.4831C152.199 32.4831 153.429 33.796 153.488 35.8187H146.982C147.124 33.8079 148.437 32.4831 150.318 32.4831ZM153.476 39.9706C153.003 40.976 151.95 41.5319 150.413 41.5319C148.378 41.5319 147.065 40.1007 146.982 37.8414V37.6995H156.078V36.8123C156.078 32.7669 153.914 30.3184 150.33 30.3184C146.698 30.3184 144.392 32.9325 144.392 37.0489C144.392 41.1653 146.651 43.6966 150.342 43.6966C153.287 43.6966 155.345 42.2771 155.925 39.9706H153.476Z" fill="#F34B3D"/>
<path d="M99.4967 38.6913C99.6929 41.8544 102.329 43.8773 106.252 43.8773C110.445 43.8773 113.069 41.7563 113.069 38.3725C113.069 35.7121 111.573 34.2409 107.944 33.395L105.995 32.9168C103.69 32.3774 102.758 31.654 102.758 30.3913C102.758 28.7975 104.205 27.7554 106.375 27.7554C108.434 27.7554 109.856 28.7729 110.114 30.4035H112.787C112.627 27.4243 110.004 25.3279 106.411 25.3279C102.549 25.3279 99.9749 27.4243 99.9749 30.5752C99.9749 33.1743 101.434 34.719 104.634 35.4669L106.914 36.0186C109.256 36.5703 110.286 37.3795 110.286 38.7281C110.286 40.2974 108.667 41.4375 106.46 41.4375C104.094 41.4375 102.451 40.3709 102.218 38.6913H99.4967Z" fill="#F34B3D"/>
<path d="M73.1523 30.3539C71.4016 30.3539 69.8876 31.2292 69.1069 32.696H68.9176V30.5668H66.4691V47.7301H69.0123V41.4965H69.2133C69.8876 42.8567 71.3425 43.6611 73.1759 43.6611C76.4288 43.6611 78.4988 41.0943 78.4988 37.0016C78.4988 32.9089 76.4288 30.3539 73.1523 30.3539ZM72.4307 41.3782C70.3016 41.3782 68.9649 39.6985 68.9649 37.0134C68.9649 34.3165 70.3016 32.6368 72.4426 32.6368C74.5954 32.6368 75.8847 34.281 75.8847 37.0016C75.8847 39.734 74.5954 41.3782 72.4307 41.3782Z" fill="#F34B3D"/>
<path d="M87.3977 30.3539C85.6471 30.3539 84.133 31.2292 83.3523 32.696H83.1631V30.5668H80.7145V47.7301H83.2577V41.4965H83.4588C84.133 42.8567 85.5879 43.6611 87.4214 43.6611C90.6742 43.6611 92.7442 41.0943 92.7442 37.0016C92.7442 32.9089 90.6742 30.3539 87.3977 30.3539ZM86.6762 41.3782C84.547 41.3782 83.2104 39.6985 83.2104 37.0134C83.2104 34.3165 84.547 32.6368 86.688 32.6368C88.8408 32.6368 90.1301 34.281 90.1301 37.0016C90.1301 39.734 88.8408 41.3782 86.6762 41.3782Z" fill="#F34B3D"/>
<path d="M61.9063 43.4482H64.8241L58.4367 25.757H55.482L49.0945 43.4482H51.9143L53.5449 38.7526H60.2879L61.9063 43.4482ZM56.8184 28.9691H57.0268L59.5891 36.4477H54.2437L56.8184 28.9691Z" fill="#F34B3D"/>
<path d="M50.8029 12.4131V20.9474H53.8843C56.4274 20.9474 57.9001 19.3801 57.9001 16.6536C57.9001 13.9685 56.4156 12.4131 53.8843 12.4131H50.8029ZM52.1277 13.6196H53.7364C55.5048 13.6196 56.5516 14.7433 56.5516 16.6714C56.5516 18.629 55.5225 19.7409 53.7364 19.7409H52.1277V13.6196Z" fill="#F34B3D"/>
<path d="M62.4103 21.0716C64.2911 21.0716 65.4444 19.8119 65.4444 17.7241C65.4444 15.6482 64.2852 14.3825 62.4103 14.3825C60.5296 14.3825 59.3704 15.6482 59.3704 17.7241C59.3704 19.8119 60.5237 21.0716 62.4103 21.0716ZM62.4103 19.942C61.3044 19.942 60.6834 19.1317 60.6834 17.7241C60.6834 16.3283 61.3044 15.5122 62.4103 15.5122C63.5104 15.5122 64.1373 16.3283 64.1373 17.7241C64.1373 19.1258 63.5104 19.942 62.4103 19.942Z" fill="#F34B3D"/>
<path d="M75.2657 14.5067H73.9941L72.8467 19.4215H72.7462L71.4214 14.5067H70.203L68.8782 19.4215H68.7836L67.6303 14.5067H66.341L68.1153 20.9474H69.4223L70.7471 16.2041H70.8477L72.1784 20.9474H73.4973L75.2657 14.5067Z" fill="#F34B3D"/>
<path d="M76.7301 20.9474H78.0016V17.18C78.0016 16.1746 78.599 15.5477 79.5394 15.5477C80.4797 15.5477 80.9292 16.0622 80.9292 17.0972V20.9474H82.2008V16.7778C82.2008 15.246 81.4083 14.3825 79.9711 14.3825C79.0012 14.3825 78.3624 14.8143 78.049 15.5299H77.9543V14.5067H76.7301V20.9474Z" fill="#F34B3D"/>
<path d="M84.2034 20.9474H85.475V11.9932H84.2034V20.9474Z" fill="#F34B3D"/>
<path d="M90.2573 21.0716C92.138 21.0716 93.2913 19.8119 93.2913 17.7241C93.2913 15.6482 92.1321 14.3825 90.2573 14.3825C88.3765 14.3825 87.2173 15.6482 87.2173 17.7241C87.2173 19.8119 88.3706 21.0716 90.2573 21.0716ZM90.2573 19.942C89.1513 19.942 88.5303 19.1317 88.5303 17.7241C88.5303 16.3283 89.1513 15.5122 90.2573 15.5122C91.3573 15.5122 91.9843 16.3283 91.9843 17.7241C91.9843 19.1258 91.3573 19.942 90.2573 19.942Z" fill="#F34B3D"/>
<path d="M97.08 19.9834C96.388 19.9834 95.8853 19.6463 95.8853 19.0667C95.8853 18.4989 96.2875 18.1973 97.1746 18.1381L98.7478 18.0376V18.5758C98.7478 19.3742 98.0381 19.9834 97.08 19.9834ZM96.7547 21.0539C97.6005 21.0539 98.3043 20.6872 98.6887 20.0425H98.7892V20.9474H100.014V16.5472C100.014 15.1869 99.1027 14.3825 97.4881 14.3825C96.0273 14.3825 94.9864 15.0923 94.8562 16.1982H96.0864C96.2284 15.7428 96.7192 15.4826 97.429 15.4826C98.2984 15.4826 98.7478 15.867 98.7478 16.5472V17.1031L97.0031 17.2037C95.4713 17.2983 94.6078 17.9666 94.6078 19.1258C94.6078 20.3028 95.5127 21.0539 96.7547 21.0539Z" fill="#F34B3D"/>
<path d="M104.329 21.0539C105.216 21.0539 105.967 20.634 106.351 19.9302H106.452V20.9474H107.67V11.9932H106.399V15.5299H106.304C105.955 14.8202 105.21 14.4003 104.329 14.4003C102.702 14.4003 101.655 15.6896 101.655 17.7241C101.655 19.7646 102.69 21.0539 104.329 21.0539ZM104.689 15.5417C105.754 15.5417 106.422 16.3875 106.422 17.73C106.422 19.0785 105.76 19.9124 104.689 19.9124C103.613 19.9124 102.968 19.0903 102.968 17.7241C102.968 16.3698 103.619 15.5417 104.689 15.5417Z" fill="#F34B3D"/>
<path d="M115.916 21.0716C117.797 21.0716 118.95 19.8119 118.95 17.7241C118.95 15.6482 117.791 14.3825 115.916 14.3825C114.035 14.3825 112.876 15.6482 112.876 17.7241C112.876 19.8119 114.029 21.0716 115.916 21.0716ZM115.916 19.942C114.81 19.942 114.189 19.1317 114.189 17.7241C114.189 16.3283 114.81 15.5122 115.916 15.5122C117.016 15.5122 117.643 16.3283 117.643 17.7241C117.643 19.1258 117.016 19.942 115.916 19.942Z" fill="#F34B3D"/>
<path d="M120.633 20.9474H121.905V17.18C121.905 16.1746 122.502 15.5477 123.442 15.5477C124.383 15.5477 124.832 16.0622 124.832 17.0972V20.9474H126.104V16.7778C126.104 15.246 125.311 14.3825 123.874 14.3825C122.904 14.3825 122.266 14.8143 121.952 15.5299H121.857V14.5067H120.633V20.9474Z" fill="#F34B3D"/>
<path d="M131.96 12.904V14.5363H130.937V15.6068H131.96V19.2441C131.96 20.4861 132.522 20.9829 133.936 20.9829C134.184 20.9829 134.421 20.9533 134.628 20.9179V19.8592C134.45 19.8769 134.338 19.8888 134.143 19.8888C133.51 19.8888 133.232 19.593 133.232 18.9188V15.6068H134.628V14.5363H133.232V12.904H131.96Z" fill="#F34B3D"/>
<path d="M136.334 20.9474H137.606V17.1859C137.606 16.2101 138.186 15.5536 139.227 15.5536C140.126 15.5536 140.605 16.074 140.605 17.1031V20.9474H141.876V16.7897C141.876 15.2579 141.03 14.3885 139.658 14.3885C138.688 14.3885 138.008 14.8202 137.695 15.5417H137.594V11.9932H136.334V20.9474Z" fill="#F34B3D"/>
<path d="M146.463 15.4649C147.404 15.4649 148.019 16.1213 148.048 17.1327H144.795C144.866 16.1273 145.523 15.4649 146.463 15.4649ZM148.042 19.2086C147.806 19.7113 147.279 19.9893 146.511 19.9893C145.493 19.9893 144.837 19.2737 144.795 18.144V18.0731H149.344V17.6295C149.344 15.6068 148.261 14.3825 146.469 14.3825C144.654 14.3825 143.5 15.6896 143.5 17.7478C143.5 19.806 144.63 21.0716 146.475 21.0716C147.948 21.0716 148.977 20.3619 149.267 19.2086H148.042Z" fill="#F34B3D"/>
<path d="M35.2958 28.9288C35.3267 26.5333 36.6131 24.2667 38.6539 23.0121C37.3665 21.1734 35.21 20.0076 32.9665 19.9374C30.5736 19.6862 28.2538 21.3693 27.0344 21.3693C25.7914 21.3693 23.914 19.9623 21.8923 20.0039C19.2571 20.0891 16.8004 21.5873 15.5184 23.8911C12.7624 28.6626 14.8181 35.6751 17.4581 39.5321C18.7789 41.4207 20.3226 43.5303 22.3424 43.4555C24.319 43.3735 25.0572 42.1951 27.4431 42.1951C29.8068 42.1951 30.4994 43.4555 32.5603 43.4079C34.6812 43.3735 36.0175 41.5109 37.292 39.6044C38.241 38.2587 38.9713 36.7714 39.4557 35.1976C36.9632 34.1434 35.2987 31.635 35.2958 28.9288Z" fill="#F34B3D"/>
<path d="M31.4032 17.4009C32.5596 16.0126 33.1294 14.2283 32.9914 12.4268C31.2246 12.6123 29.5926 13.4567 28.4206 14.7917C27.2745 16.096 26.678 17.849 26.7908 19.5817C28.5582 19.5999 30.2957 18.7784 31.4032 17.4009Z" fill="#F34B3D"/>
</svg>
